# xmcd
#
# Track frame offsets: 
#        150
#        14101
#        29886
#        44033
#        55603
#        68579
#        90758
#        110168
#        128447
#        139869
#
# Disc length: 2018 seconds
#
# Revision: 1
# Processed by: cddbd v1.5.1PL0 Copyright (c) Steve Scherf et al.
# Submitted via: ExactAudioCopy v0.95a5
#
DISCID=8a07e00a
DTITLE=The Legendary Tiger Man - Fuck Christmas, I Got The Blues
DYEAR=2003
DGENRE=Blues
TTITLE0=In Cold Blood
TTITLE1=Fuck Christmas, I Got The Blues
TTITLE2=Don't You Murder Me
TTITLE3=Crawdad Hole
TTITLE4=I Walk The Line (Johny Cash)
TTITLE5=Love Train
TTITLE6=Keep'em Dogs On It
TTITLE7=Ramble (Link Wray/Milt Grant)
TTITLE8=Your Life Is A Lie
TTITLE9=Big Black Boat
EXTD=YEAR: 2003
EXTT0=
EXTT1=
EXTT2=
EXTT3=
EXTT4=
EXTT5=
EXTT6=
EXTT7=
EXTT8=
EXTT9=
PLAYORDER=
